<svg id="svg" version="1.1" xmlns="http://www.w3.org/2000/svg" xmlns:xlink="http://www.w3.org/1999/xlink" width="400" height="400" viewBox="0, 0, 400,400"><g id="svgg"><path id="path0" d="M4.185 4.500 C 4.081 4.775,4.041 92.930,4.098 200.400 L 4.200 395.800 200.000 395.800 L 395.800 395.800 395.800 200.000 L 395.800 4.200 200.088 4.100 C 43.727 4.019,4.337 4.100,4.185 4.500 M305.451 173.439 C 307.018 173.860,307.073 174.738,306.729 194.161 C 306.358 215.105,306.545 214.000,303.375 214.000 C 300.591 214.000,300.877 215.885,300.334 193.991 L 299.854 174.685 300.771 173.943 C 301.678 173.208,303.757 172.985,305.451 173.439 M332.181 173.984 C 332.904 174.584,332.630 212.570,331.897 213.500 C 331.246 214.325,327.308 214.149,326.840 213.274 C 326.616 212.857,326.330 204.401,326.165 193.363 L 325.879 174.176 326.839 173.693 C 328.005 173.106,331.342 173.288,332.181 173.984 M202.118 175.860 C 206.586 176.598,205.370 183.200,200.767 183.200 C 195.497 183.200,194.971 176.200,200.200 175.651 C 200.420 175.628,201.283 175.722,202.118 175.860 M62.101 177.300 C 62.807 177.839,68.045 188.454,72.974 199.332 C 73.356 200.175,73.725 200.805,73.794 200.732 C 73.864 200.660,74.765 198.710,75.798 196.400 C 77.741 192.055,82.544 181.957,84.169 178.800 L 85.096 177.000 88.243 177.000 C 92.568 177.000,92.722 176.358,84.435 192.940 L 77.200 207.419 77.200 216.887 C 77.200 227.776,77.262 227.600,73.442 227.600 C 69.959 227.600,70.000 227.729,70.000 216.789 L 70.000 207.303 67.206 201.951 C 61.067 190.193,55.226 177.999,55.450 177.413 C 55.751 176.630,61.106 176.539,62.101 177.300 M106.737 180.524 C 106.976 180.812,107.223 183.017,107.286 185.424 L 107.400 189.800 111.976 189.914 C 117.194 190.044,117.600 190.240,117.600 192.635 C 117.600 194.963,117.045 195.200,111.583 195.200 L 107.113 195.200 107.258 207.100 C 107.416 220.129,107.579 221.025,110.022 222.314 C 111.080 222.872,114.365 222.661,115.695 221.949 C 116.897 221.306,117.600 222.210,117.600 224.400 C 117.600 230.407,105.108 229.765,102.082 223.603 L 101.000 221.400 100.885 208.317 L 100.769 195.234 97.885 195.117 L 95.000 195.000 94.632 193.509 C 93.971 190.835,94.674 190.059,97.883 189.919 L 100.600 189.800 100.714 185.424 C 100.850 180.221,100.984 180.000,104.000 180.000 C 105.409 180.000,106.471 180.203,106.737 180.524 M144.772 189.656 C 151.554 191.822,154.681 195.851,155.670 203.697 C 156.139 207.415,156.123 207.644,155.338 208.697 L 154.514 209.800 142.357 210.000 C 134.644 210.127,130.203 210.346,130.208 210.600 C 130.406 220.074,137.415 225.446,146.172 222.834 C 146.847 222.632,148.594 222.092,150.053 221.634 C 154.163 220.342,154.761 220.680,154.203 223.980 C 153.902 225.762,151.761 226.962,147.621 227.670 C 132.432 230.265,124.524 224.680,123.732 210.800 C 123.094 199.615,127.050 192.698,135.800 189.697 C 137.457 189.128,143.039 189.103,144.772 189.656 M181.676 189.891 C 185.003 190.824,186.000 191.828,186.000 194.245 C 186.000 196.825,185.512 197.187,183.558 196.054 C 177.380 192.474,170.008 194.253,170.001 199.326 C 169.998 202.208,171.595 203.564,178.302 206.372 C 185.635 209.442,187.750 211.819,187.713 216.949 C 187.644 226.391,177.255 231.157,166.200 226.818 C 163.929 225.927,163.200 224.881,163.200 222.518 C 163.200 219.835,163.671 219.611,166.358 221.016 C 173.902 224.961,181.605 223.161,181.599 217.454 C 181.595 214.817,178.827 212.544,173.000 210.396 C 161.103 206.011,160.630 193.766,172.200 189.681 C 173.632 189.176,179.596 189.308,181.676 189.891 M237.481 189.656 C 240.461 190.871,241.090 191.242,242.265 192.474 C 245.623 195.994,246.000 198.169,246.000 214.041 C 246.000 228.390,246.183 227.600,242.859 227.600 C 239.819 227.600,240.000 228.283,240.000 216.821 C 240.000 201.209,239.253 197.645,235.576 195.700 C 232.141 193.884,228.676 194.896,224.777 198.855 L 222.400 201.270 222.400 213.703 C 222.400 227.882,222.463 227.600,219.312 227.600 C 215.726 227.600,216.000 229.171,216.000 208.629 C 216.000 188.362,215.740 190.000,218.953 190.000 C 221.107 190.000,221.600 190.524,221.600 192.813 C 221.600 195.374,221.829 195.428,224.093 193.392 C 228.127 189.765,233.840 188.171,237.481 189.656 M279.584 189.833 C 286.511 190.066,286.800 190.178,286.800 192.635 C 286.800 194.764,286.160 195.200,283.033 195.200 L 280.813 195.200 281.706 196.900 C 283.052 199.459,283.004 205.472,281.617 208.168 C 278.699 213.838,269.706 216.697,263.843 213.819 L 262.285 213.054 261.543 213.972 C 259.064 217.033,261.560 220.000,266.614 220.000 C 281.319 220.000,287.077 223.257,286.271 231.119 C 285.364 239.975,271.365 244.571,259.400 239.939 C 252.844 237.402,251.670 230.351,256.900 224.927 L 258.514 223.254 257.084 221.905 C 254.631 219.592,254.482 215.572,256.727 212.245 C 258.231 210.017,258.229 210.035,257.184 208.263 C 253.909 202.713,256.458 193.668,262.060 190.959 C 265.215 189.433,266.128 189.254,269.800 189.442 C 271.780 189.543,276.183 189.719,279.584 189.833 M203.586 190.774 C 204.365 192.230,204.134 225.989,203.338 226.869 C 202.592 227.693,199.670 227.880,198.374 227.186 C 197.419 226.675,197.137 191.423,198.080 190.480 C 198.917 189.643,203.100 189.866,203.586 190.774 M136.985 194.637 C 133.558 195.854,131.618 198.293,130.602 202.664 L 130.109 204.784 131.354 205.009 C 132.039 205.133,136.290 205.181,140.800 205.117 L 149.000 205.000 149.120 202.937 C 149.472 196.855,143.071 192.476,136.985 194.637 M265.988 194.900 C 258.875 198.493,261.236 210.000,269.086 210.000 C 273.872 210.000,276.812 206.914,276.791 201.913 C 276.766 195.817,271.255 192.239,265.988 194.900 M306.542 220.181 C 310.542 223.888,304.968 231.056,300.744 227.635 C 299.420 226.563,299.314 220.802,300.600 219.830 C 301.940 218.817,305.283 219.015,306.542 220.181 M332.135 219.783 C 333.961 221.166,333.868 226.270,331.992 227.606 C 328.798 229.880,325.200 227.864,325.200 223.800 C 325.200 219.935,329.245 217.592,332.135 219.783 M262.400 226.655 C 257.378 232.195,260.638 236.800,269.582 236.800 C 275.934 236.800,280.000 234.183,280.000 230.095 C 280.000 226.759,277.621 225.693,269.400 225.346 L 263.800 225.110 262.400 226.655 " stroke="none" fill="#fbfbfb" fill-rule="evenodd"></path><path id="path1" d="M0.000 200.000 L 0.000 400.000 200.000 400.000 L 400.000 400.000 400.000 200.000 L 400.000 0.000 200.000 0.000 L 0.000 0.000 0.000 200.000 M395.800 200.000 L 395.800 395.800 200.000 395.800 L 4.200 395.800 4.098 200.400 C 4.041 92.930,4.081 4.775,4.185 4.500 C 4.337 4.100,43.727 4.019,200.088 4.100 L 395.800 4.200 395.800 200.000 M300.771 173.943 L 299.854 174.685 300.334 193.991 C 300.597 204.609,300.911 213.455,301.030 213.649 C 301.383 214.220,305.448 214.065,305.949 213.461 C 306.536 212.754,307.232 175.790,306.682 174.534 C 306.027 173.038,302.344 172.669,300.771 173.943 M326.839 173.693 L 325.879 174.176 326.165 193.363 C 326.330 204.401,326.616 212.857,326.840 213.274 C 327.308 214.149,331.246 214.325,331.897 213.500 C 332.630 212.570,332.904 174.584,332.181 173.984 C 331.342 173.288,328.005 173.106,326.839 173.693 M199.000 175.888 C 197.439 176.268,196.800 177.233,196.800 179.208 C 196.800 184.348,203.760 185.177,204.585 180.136 C 205.143 176.730,202.814 174.959,199.000 175.888 M55.450 177.413 C 55.226 177.999,61.067 190.193,67.206 201.951 L 70.000 207.303 70.000 216.789 C 70.000 226.832,70.156 227.658,72.031 227.575 C 72.344 227.561,72.195 227.387,71.700 227.188 C 70.802 226.827,70.800 226.800,70.800 217.423 L 70.800 208.020 63.373 193.310 C 58.388 183.436,56.002 178.304,56.117 177.700 C 56.311 176.686,55.812 176.471,55.450 177.413 M84.736 177.700 C 84.431 178.195,83.972 179.050,83.716 179.600 C 83.461 180.150,81.910 183.390,80.269 186.800 C 78.629 190.210,77.017 193.630,76.686 194.400 C 76.355 195.170,75.618 196.835,75.047 198.100 C 74.477 199.365,74.163 200.400,74.351 200.400 C 74.538 200.400,75.014 199.545,75.409 198.500 C 75.804 197.455,77.291 194.170,78.713 191.200 C 80.136 188.230,82.187 183.914,83.273 181.609 C 84.358 179.305,85.460 177.282,85.723 177.116 C 86.058 176.902,86.065 176.810,85.746 176.806 C 85.496 176.803,85.042 177.205,84.736 177.700 M101.276 180.509 C 100.799 181.084,100.435 190.029,100.900 189.739 C 101.065 189.637,101.200 187.619,101.200 185.256 C 101.200 182.448,101.366 180.794,101.680 180.480 C 101.944 180.216,102.056 180.000,101.929 180.000 C 101.802 180.000,101.508 180.229,101.276 180.509 M135.800 189.697 C 127.050 192.698,123.094 199.615,123.732 210.800 C 124.524 224.680,132.432 230.265,147.621 227.670 C 151.761 226.962,153.902 225.762,154.203 223.980 C 154.761 220.680,154.163 220.342,150.053 221.634 C 148.594 222.092,146.847 222.632,146.172 222.834 C 137.415 225.446,130.406 220.074,130.208 210.600 C 130.203 210.346,134.644 210.127,142.357 210.000 L 154.514 209.800 155.338 208.697 C 157.230 206.161,154.678 196.457,151.269 193.224 C 147.678 189.819,140.329 188.143,135.800 189.697 M172.200 189.681 C 160.630 193.766,161.103 206.011,173.000 210.396 C 178.827 212.544,181.595 214.817,181.599 217.454 C 181.605 223.161,173.902 224.961,166.358 221.016 C 163.671 219.611,163.200 219.835,163.200 222.518 C 163.200 224.881,163.929 225.927,166.200 226.818 C 177.255 231.157,187.644 226.391,187.713 216.949 C 187.750 211.819,185.635 209.442,178.302 206.372 C 171.595 203.564,169.998 202.208,170.001 199.326 C 170.008 194.253,177.380 192.474,183.558 196.054 C 186.441 197.725,187.438 192.954,184.576 191.185 C 181.891 189.526,175.009 188.690,172.200 189.681 M228.539 190.414 C 227.185 191.071,225.185 192.411,224.093 193.392 C 221.829 195.428,221.600 195.374,221.600 192.813 C 221.600 190.524,221.107 190.000,218.953 190.000 C 215.740 190.000,216.000 188.362,216.000 208.629 C 216.000 229.171,215.726 227.600,219.312 227.600 C 222.463 227.600,222.400 227.882,222.400 213.703 L 222.400 201.270 224.777 198.855 C 228.676 194.896,232.141 193.884,235.576 195.700 C 239.253 197.645,240.000 201.209,240.000 216.821 C 240.000 228.283,239.819 227.600,242.859 227.600 C 246.183 227.600,246.000 228.390,246.000 214.041 C 246.000 198.169,245.623 195.994,242.265 192.474 C 241.090 191.242,240.461 190.871,237.481 189.656 C 235.287 188.761,231.239 189.104,228.539 190.414 M265.000 189.688 C 256.900 192.589,253.168 201.457,257.184 208.263 C 258.229 210.035,258.231 210.017,256.727 212.245 C 254.482 215.572,254.631 219.592,257.084 221.905 L 258.514 223.254 256.900 224.927 C 251.670 230.351,252.844 237.402,259.400 239.939 C 271.365 244.571,285.364 239.975,286.271 231.119 C 287.077 223.257,281.319 220.000,266.614 220.000 C 261.560 220.000,259.064 217.033,261.543 213.972 L 262.285 213.054 263.843 213.819 C 269.706 216.697,278.699 213.838,281.617 208.168 C 283.004 205.472,283.052 199.459,281.706 196.900 L 280.813 195.200 283.033 195.200 C 286.160 195.200,286.800 194.764,286.800 192.635 C 286.800 190.178,286.511 190.066,279.584 189.833 C 276.183 189.719,271.780 189.543,269.800 189.442 C 267.740 189.337,265.687 189.442,265.000 189.688 M94.723 191.009 C 94.067 192.450,94.733 194.964,95.800 195.073 C 96.344 195.128,96.389 195.091,95.940 194.955 C 94.716 194.587,94.590 191.115,95.771 190.306 C 96.058 190.110,96.031 190.010,95.691 190.006 C 95.412 190.003,94.976 190.454,94.723 191.009 M198.080 190.480 C 197.137 191.423,197.419 226.675,198.374 227.186 C 199.670 227.880,202.592 227.693,203.338 226.869 C 204.134 225.989,204.365 192.230,203.586 190.774 C 203.100 189.866,198.917 189.643,198.080 190.480 M142.954 194.566 C 146.972 195.776,149.348 199.001,149.120 202.937 L 149.000 205.000 140.800 205.117 C 136.290 205.181,132.039 205.133,131.354 205.009 L 130.109 204.784 130.602 202.664 C 132.155 195.982,137.033 192.784,142.954 194.566 M272.126 194.580 C 278.252 196.764,278.474 206.912,272.451 209.435 C 266.474 211.939,260.665 207.029,262.000 200.600 C 263.075 195.421,267.353 192.877,272.126 194.580 M100.972 208.200 L 101.000 221.400 102.092 223.600 C 102.812 225.052,103.696 226.124,104.692 226.753 L 106.200 227.705 104.545 226.153 C 101.511 223.306,101.468 223.074,101.191 208.200 L 100.945 195.000 100.972 208.200 M300.600 219.830 C 299.314 220.802,299.420 226.563,300.744 227.635 C 304.968 231.056,310.542 223.888,306.542 220.181 C 305.283 219.015,301.940 218.817,300.600 219.830 M326.716 219.745 C 323.485 222.200,325.211 228.359,329.138 228.387 C 332.555 228.412,334.166 225.846,333.231 221.870 C 332.652 219.409,328.808 218.156,326.716 219.745 M276.370 225.983 C 284.443 228.346,279.138 236.800,269.582 236.800 C 260.638 236.800,257.378 232.195,262.400 226.655 L 263.800 225.110 269.400 225.346 C 272.480 225.476,275.616 225.763,276.370 225.983 " stroke="none" fill="#ec1d24" fill-rule="evenodd"></path><path id="path2" d="M56.267 177.067 C 55.620 177.713,56.410 179.517,63.400 193.362 L 70.800 208.020 70.800 217.420 L 70.800 226.820 71.826 227.210 C 76.657 229.047,77.200 228.004,77.200 216.887 L 77.200 207.419 84.435 192.940 C 92.431 176.941,92.396 177.057,89.218 176.876 C 85.731 176.678,85.476 176.842,83.891 180.293 C 83.106 182.002,81.037 186.370,79.292 190.000 C 77.547 193.630,75.802 197.443,75.415 198.474 C 74.492 200.933,73.800 201.160,72.951 199.283 C 68.132 188.633,62.805 177.838,62.101 177.300 C 61.424 176.783,56.738 176.595,56.267 177.067 M101.663 180.524 C 101.424 180.812,101.177 183.017,101.114 185.424 L 101.000 189.800 98.332 190.000 C 95.145 190.239,94.989 190.364,95.038 192.639 C 95.088 194.914,95.133 194.947,98.393 195.132 L 101.142 195.287 101.274 208.344 C 101.402 221.158,101.422 221.436,102.356 223.321 C 105.462 229.592,117.600 230.441,117.600 224.387 C 117.600 222.447,116.886 221.274,116.153 222.007 C 115.486 222.674,111.107 222.897,110.022 222.319 C 107.577 221.018,107.416 220.128,107.258 207.100 L 107.113 195.200 111.583 195.200 C 117.045 195.200,117.600 194.963,117.600 192.635 C 117.600 190.240,117.194 190.044,111.976 189.914 L 107.400 189.800 107.286 185.424 C 107.151 180.283,106.990 180.000,104.200 180.000 C 102.956 180.000,101.921 180.214,101.663 180.524 " stroke="none" fill="#080d19" fill-rule="evenodd"></path></g></svg>