<svg id="svg" version="1.1" xmlns="http://www.w3.org/2000/svg" xmlns:xlink="http://www.w3.org/1999/xlink" width="400" height="400" viewBox="0, 0, 400,400"><g id="svgg"><path id="path0" d="M17.310 115.485 C 12.637 117.103,8.989 120.367,6.881 124.816 L 5.642 127.432 5.642 200.020 L 5.642 272.608 7.089 275.536 C 8.880 279.161,11.811 282.044,15.464 283.774 L 18.093 285.019 200.409 285.019 L 382.725 285.019 385.652 283.573 C 389.278 281.781,392.160 278.851,393.890 275.198 L 395.136 272.568 395.136 200.000 L 395.136 127.432 393.890 124.802 C 392.160 121.150,389.278 118.219,385.652 116.427 L 382.725 114.981 200.993 114.895 C 29.365 114.814,19.152 114.847,17.310 115.485 M383.315 119.897 C 387.658 121.933,390.241 125.299,391.037 129.962 C 391.345 131.767,391.437 152.316,391.357 201.751 L 391.245 271.012 390.220 273.198 C 388.183 277.543,384.815 280.126,380.155 280.918 C 378.328 281.229,327.957 281.318,198.638 281.238 L 19.650 281.128 17.463 280.103 C 13.120 278.067,10.538 274.701,9.741 270.038 C 9.433 268.233,9.341 247.684,9.421 198.249 L 9.533 128.988 10.545 126.830 C 12.477 122.713,15.648 120.109,19.834 119.204 C 21.486 118.847,63.627 118.755,201.556 118.806 L 381.128 118.872 383.315 119.897 M216.732 187.938 C 215.074 189.595,216.216 192.996,218.430 192.996 C 219.956 192.996,221.401 191.577,221.401 190.078 C 221.401 187.662,218.388 186.281,216.732 187.938 M283.658 198.054 L 283.658 207.004 285.603 207.004 L 287.549 207.004 287.549 198.054 L 287.549 189.105 285.603 189.105 L 283.658 189.105 283.658 198.054 M300.389 198.054 L 300.389 207.004 302.335 207.004 L 304.280 207.004 304.280 199.860 C 304.280 195.930,304.392 191.903,304.528 190.910 L 304.775 189.105 302.582 189.105 L 300.389 189.105 300.389 198.054 M170.294 195.898 C 166.992 197.075,165.319 199.834,165.062 204.526 C 164.647 212.083,168.112 215.571,176.022 215.559 C 181.064 215.551,181.161 215.509,180.990 213.362 L 180.849 211.590 178.023 211.854 C 174.446 212.190,172.244 211.622,170.549 209.926 C 168.155 207.532,168.439 207.393,175.730 207.393 L 182.199 207.393 182.023 204.183 C 181.632 197.059,176.736 193.601,170.294 195.898 M192.548 195.871 C 188.417 196.983,186.702 199.788,187.954 203.381 C 188.488 204.914,190.439 205.973,194.958 207.182 C 198.957 208.252,199.829 208.816,199.430 210.074 C 198.914 211.700,195.327 212.202,188.716 211.571 C 187.828 211.487,187.725 211.639,187.532 213.315 L 187.321 215.152 188.979 215.400 C 195.483 216.376,201.995 214.968,203.254 212.315 C 205.334 207.932,203.380 205.457,196.345 203.565 C 189.274 201.663,190.242 199.500,198.259 199.287 L 203.113 199.158 203.113 197.484 C 203.113 196.078,202.973 195.773,202.237 195.576 C 200.724 195.170,194.438 195.362,192.548 195.871 M237.615 195.937 C 237.010 196.277,236.291 197.086,236.018 197.736 L 235.521 198.917 235.266 197.318 L 235.010 195.720 233.069 195.720 L 231.128 195.720 231.128 205.447 L 231.128 215.175 233.268 215.175 L 235.409 215.175 235.409 209.131 C 235.409 201.057,236.220 199.222,239.793 199.222 C 242.877 199.222,243.191 200.045,243.191 208.154 L 243.191 215.175 245.360 215.175 L 247.529 215.175 247.403 207.490 C 247.264 199.070,247.034 198.143,244.646 196.362 C 243.216 195.297,239.188 195.053,237.615 195.937 M256.118 196.155 C 250.783 198.796,250.295 210.789,255.370 214.549 C 257.469 216.105,261.938 215.961,263.615 214.284 L 264.981 212.918 264.981 214.474 C 264.981 218.480,263.215 219.790,257.367 220.121 L 253.307 220.351 253.307 222.275 L 253.307 224.199 257.490 223.935 C 268.305 223.250,269.012 222.197,269.186 206.518 L 269.306 195.720 267.338 195.720 L 265.370 195.720 265.364 197.374 C 265.358 198.951,265.336 198.983,264.872 198.066 C 263.534 195.421,259.416 194.522,256.118 196.155 M210.506 197.471 L 210.506 199.222 213.619 199.222 L 216.732 199.222 216.732 205.447 L 216.732 211.673 213.035 211.673 L 209.339 211.673 209.339 213.424 L 209.339 215.175 218.093 215.175 L 226.848 215.175 226.848 213.424 L 226.848 211.673 223.930 211.673 L 221.012 211.673 221.012 203.696 L 221.012 195.720 215.759 195.720 L 210.506 195.720 210.506 197.471 M176.288 199.805 C 177.303 200.456,178.210 202.057,178.210 203.199 L 178.210 204.280 173.541 204.280 C 168.290 204.280,168.268 204.265,169.658 201.541 C 170.090 200.693,170.484 199.997,170.533 199.994 C 170.582 199.991,171.296 199.754,172.119 199.467 C 173.614 198.947,175.142 199.071,176.288 199.805 M262.478 199.402 C 265.665 200.734,266.030 209.298,262.990 211.428 C 260.720 213.017,257.239 211.533,256.434 208.633 C 254.735 202.516,257.999 197.531,262.478 199.402 M283.658 210.895 C 281.917 212.636,283.221 215.564,285.737 215.564 C 287.388 215.564,288.327 214.552,288.327 212.773 C 288.327 210.312,285.413 209.140,283.658 210.895 M300.389 210.895 C 298.635 212.649,299.954 215.564,302.501 215.564 C 303.928 215.564,305.447 214.160,305.447 212.840 C 305.447 210.546,302.047 209.238,300.389 210.895 " stroke="none" fill="#ec1c24" fill-rule="evenodd"></path><path id="path1" d="M119.455 189.457 C 119.455 189.650,121.381 193.503,123.735 198.020 L 128.016 206.231 128.016 210.703 L 128.016 215.175 129.961 215.175 L 131.907 215.175 131.907 210.644 L 131.907 206.113 136.187 197.843 C 141.213 188.130,140.970 189.105,138.361 189.105 L 136.254 189.105 133.081 195.623 L 129.908 202.140 126.760 195.623 L 123.611 189.105 121.533 189.105 C 120.390 189.105,119.455 189.263,119.455 189.457 M146.693 192.802 L 146.693 195.720 144.358 195.720 L 142.023 195.720 142.023 197.471 L 142.023 199.222 144.316 199.222 L 146.608 199.222 146.751 204.961 C 146.977 213.965,148.325 215.564,155.693 215.564 C 160.533 215.564,160.542 215.560,160.372 213.427 L 160.234 211.690 157.032 211.779 C 151.543 211.931,150.973 211.205,150.973 204.067 L 150.973 199.222 155.447 199.222 L 159.922 199.222 159.922 197.471 L 159.922 195.720 155.447 195.720 L 150.973 195.720 150.973 192.802 L 150.973 189.883 148.833 189.883 L 146.693 189.883 146.693 192.802 " stroke="none" fill="#040404" fill-rule="evenodd"></path></g></svg>