<?xml version="1.0" standalone="no"?>
<!DOCTYPE svg PUBLIC "-//W3C//DTD SVG 20010904//EN"
 "http://www.w3.org/TR/2001/REC-SVG-20010904/DTD/svg10.dtd">
<svg version="1.0" xmlns="http://www.w3.org/2000/svg"
 width="480.000000pt" height="480.000000pt" viewBox="0 0 480.000000 480.000000"
 preserveAspectRatio="xMidYMid meet">

<g transform="translate(0.000000,480.000000) scale(0.100000,-0.100000)"
fill="#000000" stroke="none">
<path d="M0 2400 l0 -2400 2400 0 2400 0 0 2400 0 2400 -2400 0 -2400 0 0
-2400z m4720 0 l0 -2320 -2320 0 -2320 0 0 2320 0 2320 2320 0 2320 0 0 -2320z"/>
<path d="M3438 2773 c-3 -4 -2 -114 1 -243 l6 -235 30 0 30 0 0 240 0 240 -32
3 c-17 2 -33 -1 -35 -5z"/>
<path d="M3748 2773 c-3 -4 -2 -114 1 -243 l6 -235 30 0 30 0 0 240 0 240 -32
3 c-17 2 -33 -1 -35 -5z"/>
<path d="M2201 2728 c-13 -36 2 -63 38 -66 26 -3 33 1 41 23 14 38 -3 65 -41
65 -22 0 -32 -6 -38 -22z"/>
<path d="M980 2724 c0 -9 37 -87 82 -173 l83 -156 5 -130 5 -130 38 -3 37 -3
0 116 0 115 90 180 c50 99 90 185 90 190 0 7 -16 10 -37 8 -37 -3 -40 -6 -78
-83 -23 -44 -54 -109 -69 -145 l-29 -64 -71 144 -71 145 -37 3 c-30 3 -38 0
-38 -14z"/>
<path d="M1527 2694 c-4 -4 -7 -31 -7 -61 l0 -53 -35 0 c-32 0 -35 -2 -35 -30
0 -28 3 -30 34 -30 l35 0 3 -164 c3 -149 5 -167 24 -193 26 -35 80 -50 132
-37 32 8 37 13 40 40 l3 32 -47 -6 c-70 -8 -74 2 -74 180 l0 148 61 0 c60 0
60 0 57 28 -3 26 -6 27 -60 30 l-57 3 -3 57 c-3 55 -4 57 -33 60 -17 2 -34 0
-38 -4z"/>
<path d="M1873 2571 c-52 -24 -77 -69 -70 -123 7 -52 29 -75 107 -111 81 -36
100 -53 100 -86 0 -32 -8 -44 -37 -60 -32 -16 -82 -13 -132 9 -24 11 -45 20
-48 20 -2 0 -3 -15 -1 -32 4 -44 43 -63 128 -62 107 0 160 44 160 132 0 54
-30 89 -109 125 -80 35 -101 53 -101 84 0 55 88 84 150 48 36 -20 40 -19 40
15 0 36 -23 50 -93 56 -38 4 -63 0 -94 -15z"/>
<path d="M2570 2571 c-19 -10 -44 -29 -55 -41 l-20 -22 -5 33 c-4 30 -9 34
-35 34 l-30 0 0 -220 0 -220 35 0 35 0 3 157 2 156 40 36 c51 46 104 50 141
10 23 -24 24 -33 29 -192 l5 -167 33 -3 32 -3 0 173 c0 189 -8 222 -61 261
-38 28 -106 32 -149 8z"/>
<path d="M3004 2580 c-76 -24 -122 -127 -91 -203 14 -33 14 -39 -4 -74 -24
-47 -24 -64 2 -97 l21 -26 -26 -31 c-35 -41 -36 -106 -3 -136 36 -33 63 -43
130 -50 158 -14 268 75 223 181 -20 48 -56 62 -176 71 -103 8 -120 15 -120 51
0 31 14 37 56 24 59 -20 122 -5 166 40 35 35 38 42 38 94 0 32 -5 66 -10 77
-10 17 -7 19 25 19 32 0 35 2 35 30 l0 30 -67 0 c-38 0 -90 2 -118 5 -27 2
-64 0 -81 -5z m118 -70 c32 -25 42 -71 24 -115 -17 -39 -42 -55 -88 -55 -59 0
-96 51 -84 115 13 67 95 97 148 55z m33 -364 c31 -13 35 -19 35 -51 0 -47 -43
-75 -117 -75 -111 0 -154 48 -102 114 18 23 27 26 85 26 36 0 80 -7 99 -14z"/>
<path d="M2205 2568 c-3 -7 -4 -108 -3 -223 l3 -210 35 0 35 0 0 220 0 220
-33 3 c-20 2 -34 -2 -37 -10z"/>
<path d="M3443 2223 c-8 -3 -13 -23 -13 -49 0 -39 3 -44 27 -50 36 -9 57 7 61
45 5 50 -28 74 -75 54z"/>
<path d="M3753 2223 c-8 -3 -13 -23 -13 -49 0 -39 3 -44 27 -50 36 -9 57 7 61
45 5 50 -28 74 -75 54z"/>
</g>
</svg>
